<svg width="32" height="32" viewBox="0 0 32 32" fill="none" xmlns="http://www.w3.org/2000/svg">
<path d="M28.925 5.54242C28.925 5.54242 28.925 5.55492 28.925 5.56117L21.65 29.5537C21.5399 29.9434 21.3132 30.29 21.0004 30.5472C20.6876 30.8044 20.3036 30.9597 19.9 30.9924C19.8425 30.9974 19.785 30.9999 19.7275 30.9999C19.3493 31.0011 18.9786 30.894 18.6592 30.6914C18.3398 30.4887 18.085 30.1989 17.925 29.8562L13.375 20.5187C13.3295 20.4251 13.3143 20.3196 13.3315 20.217C13.3488 20.1144 13.3976 20.0197 13.4713 19.9462L20.7113 12.7062C20.8909 12.5171 20.9895 12.2654 20.9862 12.0046C20.9829 11.7438 20.8778 11.4947 20.6934 11.3103C20.509 11.1259 20.2599 11.0208 19.9991 11.0175C19.7383 11.0141 19.4866 11.1128 19.2975 11.2924L12.0538 18.5324C11.9802 18.606 11.8855 18.6549 11.7829 18.6721C11.6803 18.6894 11.5748 18.6742 11.4813 18.6287L2.13502 14.0799C1.76954 13.9046 1.46598 13.6223 1.26454 13.2706C1.06311 12.9188 0.973316 12.5141 1.00707 12.1102C1.04082 11.7062 1.19652 11.3221 1.45354 11.0086C1.71056 10.6951 2.05676 10.4672 2.44627 10.3549L26.4388 3.07992H26.4575C26.7991 2.98394 27.1601 2.98058 27.5034 3.07017C27.8468 3.15976 28.1601 3.33908 28.4113 3.58972C28.6624 3.84037 28.8424 4.15333 28.9326 4.49648C29.0229 4.83963 29.0203 5.20062 28.925 5.54242Z" fill="#343330"/>
</svg>
